<svg xmlns="http://www.w3.org/2000/svg" version="1.1" viewBox="0 0 3562.667 1208"><path d="M1896.076 1206.554c-7.659-.587-17.859-1.686-22.667-2.444-4.808-.757-15.642-2.016-24.076-2.799-14.24-1.32-31.8-5.621-47.333-11.593-2.933-1.128-14.633-5.225-26-9.104-58.274-19.89-72.289-24.897-81.789-29.227-5.697-2.596-11.375-4.733-12.618-4.75-4.46-.058-13.099-5.05-22.926-13.247-12.139-10.125-18.62-17.051-24.995-26.712-2.658-4.027-7.412-10.488-10.564-14.358-5.464-6.71-9.644-14.401-11.765-21.653-.537-1.834-5.035-11.734-9.996-22-8.736-18.08-13.838-34.316-16.759-53.334-.563-3.666-1.322-7.566-1.687-8.666-.365-1.1-.802-20-.971-42-.17-22-.968-45.4-1.775-52-.806-6.6-1.466-23.1-1.465-36.667 0-19.752-2.436-83.868-3.227-84.92-.328-.434-12.938-.376-77.463.357-72.829.828-96.946.835-132.667.039-35.344-.788-50.845-.856-51.86-.229-.47.29-10.743.897-22.83 1.35-12.087.451-24.976 1.652-28.643 2.668-3.667 1.017-11.73 2.048-17.918 2.292-10.542.415-11.55.716-16 4.77-2.612 2.38-5.104 4.33-5.538 4.333-.434.004-1.181 10.957-1.66 24.34-1.01 28.268-2.883 56.38-5.575 83.667-3.517 35.651-3.252 75.063.637 94.666.8 4.034 1.741 18.134 2.092 31.334.35 13.2 1.21 31.8 1.908 41.333.7 9.533 1.323 39.735 1.386 67.115.063 27.38.44 51.414.84 53.408.834 4.172-2.22 7.589-5.62 6.284-1.279-.49-3.711.492-6.017 2.433l-3.87 3.256-30.333-.724c-47.998-1.146-116.269-.742-129.786.767-8.293.926-12.901.94-13.984.041-.888-.737-2.128-1.248-2.755-1.136-4.149.745-8.574-4.946-7.5-9.644.278-1.21-1.096-3.8-3.05-5.756l-3.556-3.555.843-40.953c.463-22.524 1.452-49.034 2.197-58.911 3.746-49.64 3.554-36.467 2.192-150.625-.812-68.037-1.436-86.795-3.463-104-.648-5.5-.917-15.925-.598-23.166.535-12.108.362-13.319-2.145-15.075-1.5-1.05-2.727-3.292-2.727-4.982 0-2.982-.456-3.097-15.667-3.955-8.616-.486-18.666-.787-22.333-.668-10.098.326-61.102.305-86.667-.037-24.057-.321-56.45.668-62 1.894-1.833.405-8.433 1.018-14.666 1.361-6.234.344-15.9 1.005-21.48 1.47-6.95.578-10.44.368-11.078-.666-1.203-1.947-18.281-1.98-27.674-.053-3.906.802-8.544 1.736-10.306 2.077l-3.205.62 1.162 23.59c.639 12.975 1.181 51.79 1.205 86.257.034 50.39.398 63.292 1.86 65.86 1.373 2.413 1.603 6.325.943 16-.986 14.442-1.017 15.882-.723 33.473.217 12.973-1.387 20.29-4.361 19.903-4.674-.61-7.426.328-8.059 2.748-.381 1.457-2.35 3.28-4.377 4.05-5.417 2.06-19.625 1.822-29.023-.485a934.711 934.711 0 0 0-14.884-3.515c-3.667-.823-9.367-2.11-12.667-2.861-3.3-.75-7.8-1.654-10-2.006-2.2-.353-7-1.523-10.667-2.6a6713.696 6713.696 0 0 0-14-4.089c-4.033-1.172-8.233-2.45-9.333-2.839-1.1-.388-3.2-.915-4.667-1.17-1.466-.255-5.066-1.29-8-2.302-8.228-2.836-27.052-8.403-36.666-10.843-4.767-1.21-13.467-3.668-19.334-5.463-5.866-1.794-13.966-4.199-18-5.343-4.033-1.145-9.133-2.688-11.333-3.43-5.524-1.864-13.388-3.7-21.591-5.04-3.809-.622-7.541-1.512-8.295-1.978-.753-.465-8.437-2.615-17.075-4.778-8.638-2.162-17.506-4.765-19.706-5.785-2.2-1.02-6.7-2.651-10-3.625-3.3-.974-6.3-2.096-6.666-2.493-2.132-2.31-9.535-6.723-11.28-6.723-1.13 0-2.054-.6-2.054-1.333s-.88-1.333-1.954-1.333c-1.925 0-11.411-4.003-12.712-5.364-2.062-2.157-7.974-5.082-12.02-5.946-2.556-.546-7.705-2.425-11.442-4.175-3.738-1.75-7.42-3.182-8.181-3.182-2.539 0-19.186-10.197-20.135-12.333-.245-.55-1.295-1-2.333-1-1.04 0-1.89-.56-1.89-1.244 0-.684-1.35-1.665-3-2.18-1.65-.514-3.3-1.305-3.666-1.756-.367-.451-5.167-3.158-10.667-6.016-5.5-2.857-10.3-5.586-10.666-6.064-.367-.478-7.717-4.422-16.334-8.764-8.616-4.342-15.666-8.363-15.666-8.935 0-.573-.9-1.041-2-1.041s-2-.509-2-1.13c0-.621-4.16-3.308-9.243-5.971-5.083-2.663-14.533-8.284-21-12.492-6.466-4.207-13.857-8.8-16.424-10.208-6.479-3.553-11.885-7.338-18.98-13.29-6.032-5.06-15.555-10.984-20.02-12.453-1.283-.422-2.333-1.286-2.333-1.92 0-1.306-16.287-9.203-18.98-9.203-.968 0-3.6-1.65-5.848-3.667-2.249-2.016-6.133-4.821-8.63-6.233-2.499-1.411-4.843-2.911-5.21-3.333-1.441-1.655-9.674-5.434-11.84-5.434-1.26 0-2.862-.477-3.559-1.06-.697-.584-3.667-1.853-6.6-2.82-2.933-.968-7.133-3.403-9.333-5.41-2.2-2.009-9.077-6.59-15.282-10.18-7.883-4.562-15.17-10.41-24.18-19.402-15.43-15.403-27.524-26.298-47.872-43.128-3.3-2.73-6.2-5.496-6.444-6.148-.245-.652-1.008-1.185-1.697-1.185-2.721 0-15.277-14.865-26.275-31.107C-.773 653.723.037 655.623.06 642l.022-12 10.503-10.667c5.776-5.866 14.76-14.266 19.963-18.666 5.204-4.4 13.809-11.848 19.123-16.55 5.314-4.703 11.42-9.622 13.568-10.932 2.15-1.31 9.373-7.663 16.054-14.117 14.574-14.08 27.022-23.946 58.208-46.133 29.722-21.146 49.552-34.093 69.831-45.594 8.8-4.99 19-11.008 22.667-13.373 3.667-2.364 12.667-7.75 20-11.97 7.333-4.22 16.933-9.928 21.333-12.685 4.4-2.758 14.572-8.77 22.605-13.36 8.033-4.591 17.333-10.273 20.667-12.627 3.334-2.353 10.262-6.556 15.395-9.34 13.637-7.395 18.711-11 20.69-14.696.968-1.81 2.516-3.29 3.44-3.29.924 0 2.472-.75 3.441-1.667.97-.916 4.162-2.474 7.096-3.461 5.492-1.849 14.01-5.785 18.616-8.604 10.017-6.13 12.967-7.601 15.246-7.601 1.42 0 2.782-.45 3.027-1 .244-.55 3.294-2.488 6.777-4.306 3.484-1.818 6.334-3.768 6.334-4.333 0-.565.657-1.028 1.46-1.028.804 0 3.342-1.35 5.64-3 5.056-3.63 8.888-5.958 11.566-7.026 3.459-1.379 17.577-8.636 28.667-14.735 11.775-6.475 27.036-13.906 28.561-13.906.848 0 12.89-4.58 18.772-7.14 1.1-.48 5-2.666 8.667-4.86 3.667-2.195 8.167-4.73 10-5.634 1.833-.905 3.633-2.011 4-2.46.717-.876 30.917-15.605 35.333-17.233 1.467-.54 4.167-1.632 6-2.427 15.674-6.79 23.568-9.582 27.14-9.602 2.307-.012 9.594-1.498 16.194-3.302s15.9-4.242 20.666-5.418c4.767-1.176 10.558-2.99 12.869-4.03 2.31-1.042 5.2-1.894 6.42-1.894 1.221 0 3.53-.705 5.132-1.566 2.726-1.467 8.131-2.907 17.58-4.683 2.2-.414 4.717-1.324 5.594-2.022 2.19-1.744 16.047-4.952 21.739-5.034 2.566-.037 7.344-1 10.617-2.139 5.04-1.754 6.163-1.79 7.334-.231.76 1.012 2.404 2.224 3.652 2.692 1.249.468 3.349 3.131 4.667 5.917 1.981 4.189 2.476 9.454 2.859 30.4.353 19.334.906 25.831 2.333 27.438 2.466 2.775 2.413 16.279-.09 23.228-2.724 7.56-2.825 86.442-.139 108.44 3.566 29.208 5.14 108.999 2.332 118.227-2.823 9.279-3.785 42.506-2.124 73.375l.935 17.375 60.812-.479c33.446-.263 82.412-.882 108.812-1.375 36.176-.675 50.792-.475 59.333.814 8.143 1.228 20.529 1.484 44 .91 17.967-.441 43.467-.722 56.667-.625 58.566.43 138.664 1.237 168.666 1.698 17.967.276 41.967.06 53.334-.482 11.366-.54 42.566-1.356 69.333-1.81 26.767-.456 57.367-1.501 68-2.323 21.169-1.638 19.633-1.63 84.667-.429 24.933.46 47.733 1.41 50.666 2.109 6.231 1.485 61.09.687 78.667-1.145 11.54-1.203 54.577-.977 88 .463 21.043.906 24.81 1.317 36.667 3.999 5.5 1.244 12.7 2.749 16 3.344 10.56 1.906 13.333 2.854 13.333 4.557 0 .915 1.266 3.273 2.813 5.24 2.616 3.326 2.747 4.57 1.873 17.846-1.703 25.884-2.708 84.85-1.527 89.605.637 2.566 1.37 23.266 1.626 46 .317 28.015 1.101 45.2 2.433 53.333 3.22 19.656 4.859 37.817 4.727 52.356-.131 14.443 1.15 23.426 5.373 37.644 1.415 4.767 3.829 14.667 5.364 22 1.535 7.333 3.659 17.057 4.72 21.607 1.063 4.551 1.931 9.755 1.931 11.565 0 8.32 12.786 17.442 45.334 32.346l16.666 7.631 16.024.576c28.228 1.015 46.781-3.679 63.337-16.022 16.786-12.515 23.77-23.659 27.39-43.703 2.354-13.037 3.58-18.853 7.856-37.254 4.758-20.48 5.934-54.346 5.05-145.413-.366-37.752.224-87.802 1.062-90 .28-.733-.556-6.733-1.858-13.333-1.758-8.922-2.074-13.881-1.229-19.333.626-4.034.699-9.734.163-12.667-2.054-11.245-1.52-13.273 5.754-21.875 4.907-5.802 8.256-8.503 11.667-9.408 4.635-1.23 35.033-2.928 90.118-5.032 36.27-1.385 94.429-.916 162 1.307 10.608.349 29.284-1.374 56.666-5.226 23.795-3.348 52.46-4.168 76-2.174 6.253.53 82.592 2.039 102.667 2.03 2.2-.001 15.7-.723 30-1.605 33.65-2.075 51.326-1.384 54.056 2.115 2.356 3.02 14.036 26.575 22.413 45.201 7.145 15.887 12.04 28.872 19.354 51.334 2.985 9.166 8.38 23.866 11.991 32.666 3.61 8.8 10.273 25 14.807 36 4.533 11 9.928 25.1 11.988 31.334 2.06 6.233 5.68 15.833 8.044 21.333 2.363 5.5 6.226 15.4 8.584 22 2.357 6.6 4.917 13.2 5.688 14.667.772 1.466 3.271 6.65 5.555 11.517 4.502 9.597 6.089 10.836 12.292 9.595 4.866-.973 6.533-3.328 12.718-17.963 7.874-18.634 14.004-38.424 19.974-64.483 1.008-4.4 4.01-14 6.672-21.333 6.724-18.522 16.671-48.858 22.517-68.667 2.705-9.166 7.565-24.016 10.8-33a16103.36 16103.36 0 0 0 11.95-33.333c14.04-39.322 13.75-38.75 23.719-46.517 7.217-5.623 16.732-7.127 40.878-6.462 9.167.253 40.667.41 70 .347 29.333-.062 55.733-.116 58.667-.121 19.348-.033 69.605 2.33 70.881 3.333.944.742 1.863.706 2.356-.091.512-.828 1.9-.716 3.785.306 6.943 3.764 8.978 5.679 8.978 8.45 0 1.615 1.098 3.721 2.44 4.68 5.967 4.258 6.495 15.354 7.442 156.408.186 27.697.945 50.461 1.866 56 1.63 9.796 1.46 19.161-.998 55.334-.823 12.1-1.788 40.9-2.144 64-.357 23.1-.89 46.8-1.184 52.666-.294 5.867-.013 16.967.625 24.667.638 7.7 1.494 25.1 1.902 38.667.407 13.566 1.822 37.266 3.143 52.666l-1.773 60.365-3.081 4.973c-1.695 2.736-3.08 5.586-3.08 6.333 0 .748-.75 1.355-1.668 1.348-.916-.01-3.234 1.895-5.15 4.226-2.753 3.35-4.428 4.2-8 4.061-2.484-.097-21.016-.348-41.183-.559-28.276-.295-37.412-.806-39.925-2.234-2.565-1.458-6.544-1.641-18.667-.862-28.636 1.84-43.494 1.916-46.86.238-4.786-2.386-1.67-41.787-4.49-89.889-.429-7.333-1.047-14.833-1.372-16.666-.325-1.834-.895-27.334-1.266-56.667-.405-31.921-1.243-55.104-2.088-57.743-.778-2.426-1.622-14.278-1.876-26.34-.255-12.061-.796-22.468-1.203-23.125-.406-.658-2.5-1.81-4.653-2.56-3.883-1.354-3.934-1.306-6.54 6.202-1.444 4.161-4.439 12.066-6.655 17.566-5.638 13.992-13.39 34.47-22.21 58.667-10.738 29.454-19.995 51.955-27.702 67.333-3.675 7.333-8.055 18.433-9.733 24.667-4.626 17.181-15.693 48.925-20.454 58.666-7.012 14.346-8.33 15.33-23.154 17.293-7.06.934-14.367 1.314-16.239.844-1.872-.47-3.404-.32-3.404.333 0 .69-2.613.698-6.25.019-8.888-1.66-50.744-2.01-84.763-.709l-29.013 1.11-6.814-6.126c-3.748-3.37-8.186-6.47-9.861-6.891-2.958-.743-4.576-3.914-4.614-9.042-.01-1.377-1.793-6.177-3.963-10.667s-5.85-13.863-8.178-20.83c-2.328-6.967-5.594-15.367-7.256-18.667-2.961-5.877-8.476-18.728-12.016-28-4.272-11.19-12.295-34.337-13.171-38-.897-3.746-6.62-17.079-15.574-36.277-2.123-4.553-3.86-8.587-3.86-8.964 0-.377-1.42-3.852-3.156-7.722-1.736-3.87-5.07-11.537-7.407-17.037-2.338-5.5-6.08-13.6-8.314-18-5.424-10.682-22.016-43.853-25.61-51.203-2.185-4.468-4.036-6.274-7.745-7.558-2.681-.928-5.226-1.337-5.655-.908-1.51 1.51-.757 21.602 1.12 29.92 1.396 6.18 2.101 22.94 2.654 63.083.414 30.066 1.048 57.366 1.409 60.666.36 3.3.974 28.8 1.364 56.667.389 27.867-.399 79.466.054 83.987.76 7.61.566 8.478-2.623 11.667-3.498 3.497-7.514 4.13-14.234 2.244-2.076-.584-5.726-.03-9.68 1.466-11.87 4.492-46.35 2.724-68.986-3.538-9.689-2.68-15.378-2.579-33.506.593-9.93 1.738-21.219 2.658-32.719 2.667l-17.558.014-2.773-4.487c-2.393-3.872-2.792-6.753-2.911-21-.442-52.87 1.43-107.664 2.788-123.613.843-9.9 1.798-22.5 2.123-28 .325-5.5 1.007-16 1.516-23.333.51-7.334.903-16.334.874-20-.085-11.07-2.928-42.105-4.01-43.774-.556-.858-1.064-27.06-1.128-58.226-.09-44.144-.615-60.935-2.373-75.98-1.242-10.621-2.362-24.615-2.49-31.098-.204-10.291-.572-11.967-2.904-13.215-5.247-2.808-78.098 1.388-79.274 4.566-.268.725-2.139 3.21-4.157 5.523l-3.67 4.204.433 18.666c.239 10.267.765 27.967 1.17 39.334.834 23.394-1.012 65.54-4 91.333-1.104 9.533-2.627 25.133-3.383 34.667-1.776 22.369-3.236 31.678-8.732 55.691-2.742 11.983-4.507 23.233-4.507 28.738 0 14.395-3.423 19.782-29.243 46.013-24.506 24.898-42.723 40.112-62.09 51.857-5.133 3.113-10.83 6.459-12.658 7.436-1.828.977-5.128 3.12-7.333 4.761-9.347 6.958-30.497 17.184-48.009 23.212-11.51 3.962-38.527 12.292-39.867 12.292-.625 0-7.511 2.393-15.302 5.318-15.88 5.961-17.65 6.29-64.831 12.05-11.884 1.45-20.116 1.42-40.591-.148zM336.666 650.296c5.867-1.072 12.467-2.923 14.667-4.114 2.2-1.191 4.77-2.17 5.71-2.174.94-.005 6.484-1.85 12.32-4.1 13.002-5.014 20.365-11.875 27.48-25.604 2.746-5.3 6.23-12.037 7.741-14.97 2.328-4.516 2.75-7.788 2.75-21.334 0-15.057-.251-16.577-4.256-25.79-10.51-24.176-22.283-34.207-46.411-39.542-14.856-3.284-43.429-2.19-54.07 2.071-3.995 1.6-9.352 3.505-11.905 4.233-2.552.728-7.16 3.057-10.24 5.176-3.08 2.118-5.967 3.852-6.416 3.852-1.894 0-15.339 10.879-17.914 14.495-7.005 9.837-9.429 17.618-9.442 30.306-.007 6.674.64 14.174 1.438 16.667 1.999 6.243 5.61 13.199 6.852 13.199.566 0 1.03 1.317 1.03 2.928 0 2.75 6.146 13.21 8.333 14.183.55.244 1 1.173 1 2.063 0 1.713 12.667 14.147 20.49 20.114 2.554 1.949 8.516 5.176 13.246 7.172 9.893 4.174 19.508 4.473 37.598 1.169zm-30.687-42.848c-15.885-2.53-20.066-4.284-25.14-10.55-7.845-9.687-9.453-13.922-9.452-24.898 0-12.734 3.486-23.438 9.119-28 2.263-1.833 7.125-6.077 10.804-9.43 12.554-11.44 13.632-11.903 27.733-11.903 11.902 0 21.27 2.088 22.502 5.016.25.595 3.285 2.724 6.743 4.73 3.459 2.005 7.952 5.828 9.986 8.494 3.567 4.677 3.697 5.414 3.711 20.97.014 15.13-.225 16.612-3.88 24.066-3.909 7.974-10.559 15.358-16.772 18.625-2.975 1.564-6.743 2.307-20.666 4.074-2.2.28-8.81-.258-14.688-1.194zm3150.584 365.517c-3.724-2.364-7.946-5.498-9.382-6.965-1.436-1.467-6.135-5.667-10.443-9.333-4.307-3.667-18.454-17.317-31.436-30.334-12.982-13.016-24.286-23.666-25.12-23.666-.833 0-1.515-.802-1.515-1.782s-3.15-3.388-7-5.35c-3.85-1.962-9.7-6.03-13-9.039-3.3-3.009-9.3-7.931-13.334-10.939-4.033-3.007-12.133-10.37-18-16.361-15.403-15.733-23.957-24.242-35.803-35.618-5.76-5.53-10.158-10.562-9.776-11.18.924-1.495-4.896-8.955-21.42-27.457-7.517-8.416-13.667-15.733-13.667-16.26 0-.527-5.703-7.946-12.674-16.486-6.97-8.54-14.505-17.78-16.744-20.53-2.238-2.751-4.29-6.143-4.557-7.537-.651-3.38-4.341-10.42-5.998-11.445-.73-.45-2.273-4.077-3.43-8.06-1.158-3.982-2.62-7.559-3.25-7.947-1.268-.784-6.056-14.104-5.628-15.66.148-.541-1.3-5.041-3.22-10-1.92-4.959-3.608-9.916-3.75-11.016-.473-3.633-3.704-12.538-7.74-21.333a2428.67 2428.67 0 0 1-7.263-16c-5.972-13.324-8.722-17.941-13.93-23.384-2.832-2.961-5.15-5.985-5.15-6.72 0-.734-4.05-5.772-9-11.196-4.95-5.423-8.777-10.11-8.505-10.415.272-.306-2.128-3.765-5.333-7.689-5.367-6.569-6.28-7.139-11.542-7.198-3.142-.036-7.152-1.008-8.91-2.16-2.412-1.58-3.843-1.75-5.825-.688-1.445.773-5.235 1.44-8.423 1.48-7.247.094-23.704-1.913-26.733-3.259-1.36-.604-3.402-.218-5.09.965-2.247 1.574-6.115 1.847-19.062 1.348-8.934-.344-21.043.053-26.91.883-13.247 1.874-37.054 1.888-45.359.027-4.348-.975-8.569-.974-13.943 0-6.675 1.21-20.235 1.431-54.031.88-4.4-.072-10.7.335-14 .904-3.3.57-10.201 1.371-15.335 1.783l-9.335.747-6.665-5.59c-3.666-3.076-7.903-6.087-9.416-6.694-1.703-.682-3.389-3.309-4.426-6.896-4.598-15.905-15.076-47.525-16.726-50.477-1.03-1.841-3.749-8.141-6.043-14-2.294-5.858-5.465-13.148-7.048-16.2l-2.876-5.548-4.732 1.77c-7.005 2.62-36.855 3.692-112.065 4.023-57.298.252-68.554.62-75.526 2.467-4.506 1.193-10.044 2.17-12.308 2.17-3.384 0-4.274.651-5.007 3.667-.49 2.016-4.007 10.266-7.814 18.333-3.807 8.067-8.895 20.067-11.307 26.667-2.411 6.6-5.716 15.6-7.344 20-1.628 4.4-3.946 10.7-5.152 14-1.83 5.008-3.354 6.625-9.22 9.783-6.284 3.383-8.223 3.76-18.341 3.563-29.875-.581-74.597.16-82.497 1.367-16.462 2.515-20.793 2.775-53.484 3.21-17.967.24-36.78 1.126-41.806 1.97-5.554.933-9.738 1.059-10.666.32-.84-.67-13.828-1.239-28.861-1.266-29.714-.055-64.105-2.063-74.246-4.336-4.703-1.054-10.964-.98-23.738.277-20.507 2.02-20.177 2.016-62.016.676-57.551-1.844-75.217-2.044-80.429-.912-4.926 1.07-5.413.83-14.674-7.247l-9.58-8.355-7.262-21.858c-3.994-12.023-7.661-22.459-8.149-23.192-.488-.734-1.919-4.634-3.18-8.667-1.262-4.033-3.096-9.133-4.076-11.333-.98-2.2-3.08-7.48-4.669-11.73-2.425-6.494-3.2-7.473-4.835-6.115-1.59 1.32-2.084 1.098-2.687-1.208-.611-2.34-1.46-2.7-4.932-2.104-2.307.396-5.094 1.035-6.194 1.419-4.441 1.55-63.304 1.989-75.088.56-6.735-.818-21.845-1.42-33.579-1.337-11.733.082-28.533.045-37.333-.084-17.305-.252-39.727 1.968-40.444 4.004-.245.694-2.195 1.261-4.334 1.261s-3.889.516-3.889 1.146c0 .63-2.435 3.912-5.412 7.294-3.524 4.004-6.792 9.93-9.368 16.987-2.175 5.962-4.767 12.43-5.76 14.373-.993 1.943-2.21 5.634-2.704 8.2-.494 2.567-1.729 6.767-2.743 9.334-1.015 2.566-3.134 9.195-4.71 14.729-2.749 9.659-3.113 10.193-9.083 13.307-3.42 1.784-9.09 5.277-12.597 7.761-6.032 4.271-6.828 4.476-14.667 3.761-21.583-1.966-75.62-3.208-77.914-1.79-2.569 1.587-19.704 2.791-39.708 2.79-21.593-.002-50.878-1.452-52.756-2.614-.564-.348-5.424.046-10.801.875-5.377.828-20.877 1.443-34.443 1.364-13.567-.078-31.267.299-39.334.838-8.066.538-18.566.505-23.333-.074-17.17-2.087-63.906-.897-73.395 1.867-4.501 1.312-19.709 1.688-62.85 1.555l-56.91-.175-5.423-5.757c-3.324-3.528-5.433-7.049-5.45-9.097-.015-1.837-1.466-7.24-3.223-12.007a4967.575 4967.575 0 0 1-8.659-23.797c-3.005-8.321-6.872-18.221-8.593-22-1.721-3.778-3.59-8.336-4.152-10.13-2.026-6.456-8.874-20.704-10.426-21.69-3.097-1.97-11.923-1.002-22.017 2.413-9.59 3.244-10.802 3.363-19.231 1.88-5.453-.96-18.057-1.405-32-1.13-12.652.25-34.104-.097-47.671-.77-33.103-1.641-54.342-1.768-68-.406-6.233.622-13.199 1.08-15.48 1.018-2.28-.062-4.749.65-5.486 1.583-2.091 2.643-8.255 18.904-9.054 23.883-.806 5.024-3.105 14.322-7.206 29.146-1.522 5.5-3.945 16.56-5.384 24.576-2.944 16.404-5.194 20.076-11.983 19.557-6.47-.494-11.745-.385-27.407.566-19.033 1.156-32.99 1.194-64 .176-20.539-.675-27.66-.413-37.627 1.383-11.043 1.99-14.365 2.03-32.666.393a380.197 380.197 0 0 0-54.374-.972l-6 .321-.203-5.163c-.112-2.84-1.361-6.74-2.776-8.667-4.111-5.6-7.323-15.479-7.512-23.11-.157-6.314.996-9.454 10.92-29.727 13.095-26.75 21.548-41.817 33.659-60 4.884-7.333 11.415-18.133 14.511-24 3.097-5.866 7.462-12.58 9.7-14.92 2.99-3.125 5.78-9.318 10.513-23.333 3.543-10.494 6.703-20.58 7.021-22.413.547-3.147 7.828-19.333 19.492-43.334 3.841-7.902 5.001-11.733 4.477-14.785-.444-2.58-.013-4.82 1.154-6 1.986-2.007 15.474-26.258 17.722-31.863.739-1.844 2.936-6.377 4.882-10.075 1.946-3.698 4.568-10.298 5.827-14.667 1.26-4.369 6.78-17.243 12.269-28.61 23.5-48.664 26.742-55.576 28.202-60.113.845-2.63 3.323-6.491 5.507-8.583 2.45-2.347 3.969-5.156 3.969-7.34 0-6.012 5.15-24.045 8.662-30.328 2.416-4.323 3.338-7.967 3.338-13.198 0-5.962.593-7.818 3.39-10.616 1.864-1.864 3.738-5.128 4.163-7.253.712-3.56 10.9-14.569 13.483-14.569.603 0 2.234-4.57 3.625-10.155 2.292-9.203 3.06-10.547 8.184-14.333 3.11-2.298 6.69-6.057 7.956-8.353 3.405-6.179 8.29-8.486 18.071-8.533 4.654-.023 12.819-.607 18.145-1.3 28.125-3.652 63.75-3.866 78.11-.468 6.811 1.61 12.397 1.95 22 1.334 14.175-.908 65.534-1.356 104.647-.912l25.108.284 4.008 3.58c2.802 2.505 4.364 5.492 5.194 9.933.652 3.494 2.648 8.28 4.435 10.638 3.528 4.653 7.39 12.947 15.654 33.619A4778.401 4778.401 0 0 0 1306.612 88c5.195 12.77 9.388 24.994 11.207 32.667 3.326 14.028 7.498 28.122 10.71 36.178 8.017 20.113 21.196 51.99 27.488 66.488 3.819 8.8 8.327 19.6 10.018 24 1.69 4.4 12.097 25.916 23.125 47.812 11.028 21.896 21.617 44.696 23.53 50.667 3.694 11.52 4.303 12.806 19.335 40.855 5.305 9.9 11.146 21 12.98 24.666 3.54 7.081 17.67 22.839 25.994 28.989 4.892 3.614 5.508 3.712 28.667 4.54 15.627.56 26.838.321 33-.7 12.103-2.006 19.759-2.654 34.62-2.93 14.567-.272 20.59-2.4 23.474-8.289 6.4-13.072 21.716-41.707 27.25-50.943 3.513-5.867 11.636-20.906 18.049-33.421s13.81-26.115 16.436-30.221c5.748-8.985 10.222-20.066 19.528-48.358 3.86-11.733 8.35-24.033 9.978-27.333 1.628-3.3 5.766-14.1 9.195-24 3.429-9.9 7.688-21.3 9.464-25.334 7.028-15.957 12.714-27.679 16.926-34.895 18.221-31.217 20.88-36.444 30.04-59.044 4.16-10.264 10.846-24.977 14.859-32.695a5112.504 5112.504 0 0 0 12.072-23.366c3.383-6.611 5.943-9.878 8.776-11.2 2.2-1.028 10.642-6.218 18.76-11.536l14.759-9.668 16.574-.903c9.116-.496 28.326-2.038 42.69-3.425 34.547-3.337 121.782-5.068 130.55-2.59 7.755 2.19 22.03 2.72 28.069 1.042 3.94-1.096 5.824-.804 11.236 1.74 3.576 1.68 11.645 4.902 17.932 7.158 9.74 3.495 11.726 4.727 13.43 8.337 1.1 2.33 2.6 4.239 3.334 4.242.733.002 2.355 3.484 3.605 7.737s3.13 9.233 4.18 11.066c1.048 1.834 2.317 5.434 2.818 8 .502 2.567 2.338 8.267 4.082 12.667C2104.104 88.087 2108 98.455 2108 99.662c0 .732 2.465 9.058 5.477 18.501 3.386 10.614 10.233 26.844 17.933 42.504 11.682 23.759 20.59 44.292 20.59 47.459 0 .764 3.54 9.37 7.867 19.125 4.328 9.755 9.187 22.164 10.8 27.576a1591.01 1591.01 0 0 0 6.3 20.506c3.741 11.847 22.888 55.695 27.596 63.199 5.377 8.569 20.77 38.835 20.77 40.838 0 2.52 10.179 25.53 18.97 42.884 7.797 15.395 7.855 15.433 23.697 15.799 5.5.127 22.553.99 37.895 1.919 16.238.982 36.183 1.329 47.73.829 27.841-1.207 27.364-.848 38.3-28.801 3.013-7.7 7.154-17.6 9.203-22 11.572-24.848 18.082-39.81 22.916-52.667 1.785-4.748 15.895-36.797 22.6-51.333 2.03-4.4 5.93-13.638 8.669-20.529 7.647-19.247 17.666-40.324 28.912-60.829 5.624-10.253 13.637-27.235 17.807-37.737 4.17-10.503 10.212-24.46 13.426-31.014 3.214-6.555 6.541-14.762 7.393-18.238 1.563-6.372 7.434-18.585 14.255-29.653 2.034-3.3 5.138-9.6 6.897-14 4.622-11.558 14.405-28.267 20.688-35.333 1.63-1.834 5.412-7.534 8.404-12.667 9.234-15.844 8.184-15.02 19.361-15.189 5.9-.088 12.238-1.078 15.715-2.453 5.13-2.03 11.664-2.317 54.496-2.406 40.172-.082 50.295-.482 58-2.287 7.106-1.666 17.31-2.26 42.759-2.487 18.384-.165 34.063.094 34.843.576.78.482 13.15 2.386 27.488 4.231 31.771 4.089 39.335 5.74 41.058 8.958.72 1.345 1 2.946.621 3.557-.378.612 1.028 3.033 3.124 5.38 2.096 2.348 6.66 10.985 10.142 19.195 3.482 8.209 7.984 17.925 10.006 21.592 2.02 3.666 5.883 12.966 8.582 20.666 2.7 7.7 5.703 15.8 6.675 18 1.572 3.556 7.823 18.665 17.652 42.667 1.802 4.4 4.688 11.9 6.412 16.667 8.355 23.096 21.98 52.693 29.464 64.002 1.795 2.712 5.69 12.07 8.657 20.798 2.967 8.726 7.205 20 9.418 25.052 3.148 7.185 3.736 9.818 2.7 12.091-1.585 3.48-.627 9.908 1.912 12.835 1.008 1.161 2.752 5.209 3.876 8.995 1.124 3.785 3.14 7.935 4.48 9.221 1.341 1.287 3.502 5.639 4.804 9.672 1.301 4.034 4.474 11.534 7.05 16.667 2.576 5.133 6.608 14.733 8.96 21.333 2.351 6.6 8.977 23.55 14.724 37.667l10.449 25.667 7.405.12c11.832.194 29.113 1.153 42.072 2.335 6.6.602 14.1.634 16.667.07 5.108-1.121 13.354-2.314 22.666-3.277 11.334-1.173 12.674-1.434 15.667-3.053 1.65-.892 3-2.681 3-3.976 0-1.294.499-2.923 1.109-3.62.61-.696 1.824-3.784 2.698-6.862 1.912-6.725 9.183-19.879 13.941-25.219 1.893-2.124 5.424-7.547 7.847-12.05 2.423-4.504 5.586-9.736 7.03-11.628 2.476-3.246 5.414-7.48 20.29-29.242 3.408-4.987 7.862-10.253 9.896-11.701 2.034-1.448 4.111-3.935 4.616-5.526 1.32-4.16 8.79-16.18 10.837-17.438.955-.586 1.736-1.788 1.736-2.67 0-1.9 8.198-13.674 11.96-17.179 1.445-1.347 4.998-5.892 7.894-10.1 2.897-4.208 7.121-9.358 9.388-11.445 2.266-2.086 6.364-6.562 9.106-9.945 6.435-7.94 9.381-10.928 10.778-10.928.62 0 4.207-4.35 7.974-9.666 3.766-5.317 8.011-10.392 9.434-11.278 1.422-.886 5.484-5.681 9.026-10.656 6.606-9.277 11.43-14.127 19.714-19.819l9.579-6.58c2.669-1.834 5.938-3.334 7.264-3.334 1.327 0 4.093-1.572 6.148-3.493 7.406-6.926 11.902-9.723 16.444-10.23 6.397-.713 11.716-3.72 19.375-10.954 3.597-3.399 11.073-8.465 16.613-11.258 10.954-5.523 17.412-9.958 37.478-25.738 7.232-5.687 13.388-10.187 13.68-10 .292.187 1.645-.627 3.005-1.808 1.36-1.18 6.673-4.432 11.807-7.225 5.133-2.792 13.673-7.676 18.977-10.852 5.304-3.177 10.404-5.784 11.333-5.794.93-.01 6.04-2.39 11.356-5.288 5.317-2.899 9.667-5.02 9.667-4.716 0 .305 4.182-1.816 9.292-4.712 5.111-2.896 10.772-5.265 12.58-5.265 1.808 0 4.868-.601 6.8-1.336 2.89-1.098 4.62-.703 9.754 2.226 9.146 5.219 10.621 6.805 11.574 12.445.842 4.984.614 5.347-10.236 16.243-6.103 6.13-12.846 13.95-14.984 17.377-2.137 3.427-4.237 6.14-4.666 6.03-1.376-.356-17.336 15.23-18.117 17.692-.415 1.306-2.802 3.777-5.304 5.492-4.894 3.353-10.707 12.317-9.38 14.464.446.721.168 2.512-.617 3.979-2.877 5.375-20.962 22.41-30.356 28.594-11.063 7.283-10.643 6.768-14.487 17.756-1.596 4.562-4.651 10.562-6.79 13.333-2.137 2.77-4 6.756-4.14 8.856-.265 4.026-7.311 14.747-14.176 21.572-2.244 2.23-4.98 5.243-6.08 6.693a2964.1 2964.1 0 0 0-5.953 7.896c-2.174 2.893-5.004 6.31-6.288 7.595-1.284 1.284-3.942 4.906-5.905 8.047-1.964 3.142-5.434 7.597-7.712 9.901-5.16 5.22-13.418 16.82-18.428 25.887-3.186 5.768-3.832 8.551-3.964 17.074-.118 7.572-1.078 12.577-3.746 19.517-1.973 5.133-4.387 12.333-5.364 16-.977 3.667-2.137 6.967-2.578 7.333-.44.367-1.888 4.267-3.216 8.667-1.327 4.4-3.767 10.1-5.422 12.667-1.654 2.566-3.774 7.066-4.711 10-.937 2.933-2.783 7.133-4.103 9.333-1.32 2.2-3.687 7.3-5.26 11.333-1.573 4.034-4.62 10.88-6.772 15.213-3.782 7.618-4.851 12.737-3.04 14.548 1.69 1.69.414 21.509-1.477 22.96-.995.764-2.45 3.769-3.233 6.678-1.436 5.335-.26 12.38 3.772 22.584 1.023 2.589 1.73 16.274 2.02 39.09.246 19.308.786 35.445 1.2 35.859.414.414.226 1.737-.418 2.94-.683 1.275-.635 4.958.114 8.825.708 3.65 1.478 9.637 1.713 13.303.544 8.48 3.107 21.74 6.187 32 1.32 4.4 2.779 10.455 3.24 13.454.462 3 1.755 7.2 2.874 9.334 1.119 2.133 2.542 6.579 3.163 9.879 1.949 10.358 6.416 24.668 9.822 31.463 1.803 3.595 3.707 8.337 4.232 10.537.524 2.2 1.368 4.6 1.874 5.333 1.642 2.38 5.774 14.392 6.195 18.009.226 1.936 1.588 6.269 3.027 9.627 1.44 3.358 2.945 8.163 3.344 10.676.4 2.514 2.24 7.822 4.09 11.796 1.85 3.974 3.37 8.182 3.376 9.35.01 1.169 1.247 5.669 2.756 10 1.508 4.332 2.984 9.376 3.28 11.209.297 1.833 2.117 7.533 4.046 12.667 1.928 5.133 3.706 10.233 3.95 11.333 1.119 5.028 4.836 13.853 7.287 17.294 1.482 2.081 2.694 4.227 2.694 4.768 0 .54 2.467 4.888 5.481 9.661 3.015 4.773 5.622 9.338 5.795 10.144.768 3.58 3.289 8.388 5.252 10.018 1.177.976 2.14 2.359 2.14 3.072 0 .714 1.348 3.19 2.997 5.504 1.649 2.313 2.999 4.52 3 4.906 0 .386 2.17 3.686 4.818 7.334 2.649 3.648 6.409 9.521 8.355 13.052 1.947 3.531 5.789 9.531 8.538 13.334 2.749 3.802 5.869 8.713 6.933 10.913 1.064 2.2 4.996 7.6 8.738 12 3.742 4.4 8.65 10.719 10.908 14.042l4.106 6.042-2.197 6.624c-1.774 5.351-3.143 7.088-7.115 9.03-8.56 4.183-12.973 4.017-20.519-.773zM1142.576 342.642c27.066-1.176 30.179-1.553 32.752-3.97 1.564-1.47 3.92-2.672 5.236-2.672 1.948 0 2.218-.68 1.454-3.667-.516-2.016-2.06-9.966-3.433-17.666-1.372-7.7-3.121-16.1-3.888-18.667-.767-2.567-2.316-12.167-3.444-21.333-1.127-9.167-2.889-20.267-3.914-24.667-2.327-9.98-11.842-37.802-15.187-44.401-1.374-2.713-2.913-7.632-3.419-10.932-.505-3.3-1.548-8.025-2.317-10.499l-1.398-4.498-7.51.867c-4.129.476-11.21 1.504-15.737 2.283l-8.229 1.417-1.38 6.215c-.759 3.418-1.722 9.515-2.14 13.548-1.022 9.845-9.661 40.953-22.416 80.715-2.58 8.04-6.586 22.705-8.904 32.59-2.317 9.883-4.78 18.653-5.474 19.489-1.935 2.331 1.197 4.049 9.439 5.175a875.92 875.92 0 0 1 14 2.048c3.666.575 8.766.793 11.333.485 2.567-.308 18.126-1.145 34.576-1.86zm772.09-4.024c4.034-.814 15.434-1.452 25.334-1.417 9.9.034 22.577-.278 28.17-.694l10.171-.756-1.193-3.542c-.656-1.948-2.306-8.042-3.667-13.542-1.361-5.5-4.665-18.605-7.342-29.123-2.676-10.517-5.504-23.705-6.283-29.307-.78-5.601-2.85-14.574-4.601-19.94-4.226-12.946-8.4-30.739-9.401-40.075-.446-4.155-2.695-12.875-4.999-19.376l-4.188-11.821-7.63.796c-10.835 1.132-25.02 4.899-25.13 6.674-.465 7.44-1.689 15.185-2.697 17.068-.674 1.26-2.41 7.273-3.857 13.363-3.19 13.418-9.768 33.11-17.06 51.074-5.37 13.228-6.37 16.349-13.017 40.548-1.896 6.901-5.4 17.74-7.788 24.084l-4.342 11.535 5.427 1.745c15.73 5.058 37.13 6.128 54.094 2.706zm851.001.382c.291-1.283-.216-3.233-1.128-4.333-.912-1.1-2.057-4.7-2.545-8-.489-3.3-1.37-6.6-1.957-7.334-.588-.733-1.498-4.033-2.022-7.333-.525-3.3-3.248-17.7-6.051-32-2.804-14.3-6.94-36.8-9.192-50-2.253-13.2-4.703-26.58-5.446-29.731-.941-3.995.253-6.302.09-8.423-.181-2.36.82-6.4.343-8.096-.587-2.085-5.356-16.677-5.95-18.984l-6.705-2.941-14.08-.815c-10.815-.626-20.507.76-21.506 1.089-1.324.436-1.606 2.13-1.042 6.25.462 3.372-.284 11.027-1.85 18.984-1.444 7.334-3.795 21.193-5.227 30.8-1.43 9.606-4.363 25.806-6.516 36-4.034 19.102-8.298 44.197-11.08 65.2-.873 6.6-2.387 12.666-3.362 13.48-3.938 3.287-2.005 4.905 4.56 3.819 3.483-.577 25.233-1.2 48.333-1.387 32.004-.257 42.317.054 43.333 1.306 1.428 1.76 6.082 4.675 7.569 4.742.496.022 1.14-1.01 1.431-2.293z" fill="#000"/></svg>